Coordinates
version=1
nRows=17
nColumns=38
inDegrees=no

Units are S.I. units (second, meters, Newtons, ...)
If the header above contains a line with 'inDegrees', this indicates whether rotational values are in degrees (yes) or radians (no).

endheader
time	pelvis_tilt	pelvis_list	pelvis_rotation	pelvis_tx	pelvis_ty	pelvis_tz	hip_flexion_r	hip_adduction_r	hip_rotation_r	knee_angle_r	ankle_angle_r	subtalar_angle_r	mtp_angle_r	hip_flexion_l	hip_adduction_l	hip_rotation_l	knee_angle_l	ankle_angle_l	subtalar_angle_l	mtp_angle_l	lumbar_extension	lumbar_bending	lumbar_rotation	arm_flex_r	arm_add_r	arm_rot_r	elbow_flex_r	pro_sup_r	wrist_flex_r	wrist_dev_r	arm_flex_l	arm_add_l	arm_rot_l	elbow_flex_l	pro_sup_l	wrist_flex_l	wrist_dev_l
0.52	2.99866	1.47476	-1.45797	0.679569	0.114018	1.03865	0.420163	0.019679	-0.0194463	0.992135	-0.134903	0	0	-0.207545	0.0708623	-0.272121	0.273213	-0.171252	0	0	-0.384639	-0.0314619	-0.0298457	0.0370003	-0.368715	0.888573	0.477329	0.997944	0	0	-0.15014	-0.289921	0.290089	0.528107	1.15969	0	0
0.53	2.96129	1.47962	-1.41866	0.679482	0.122512	1.03807	0.431545	0.0225801	-0.0328585	0.947316	-0.128647	0	0	-0.214292	0.0687162	-0.271178	0.265147	-0.171846	0	0	-0.380975	-0.0270924	-0.0290904	0.0386727	-0.368192	0.887036	0.475434	1.0003	0	0	-0.147742	-0.29033	0.29084	0.530175	1.16025	0	0
0.54	2.91966	1.48534	-1.37355	0.6793	0.131131	1.03725	0.442545	0.024962	-0.0483273	0.901079	-0.122828	0	0	-0.219207	0.066019	-0.269568	0.258906	-0.171253	0	0	-0.376069	-0.0223343	-0.0291021	0.0395822	-0.367187	0.884567	0.472603	1.00305	0	0	-0.144608	-0.290155	0.291563	0.530321	1.16088	0	0
0.55	2.87228	1.49103	-1.3224	0.679074	0.139793	1.03622	0.452683	0.0274892	-0.0644557	0.853847	-0.118604	0	0	-0.223457	0.0631243	-0.266877	0.253937	-0.170202	0	0	-0.371078	-0.0173791	-0.0287981	0.0397474	-0.366535	0.880898	0.470308	1.00596	0	0	-0.140877	-0.289414	0.292205	0.529409	1.16216	0	0
0.56	2.8196	1.49689	-1.26599	0.678859	0.148517	1.03498	0.462477	0.0301394	-0.0810174	0.806353	-0.115678	0	0	-0.227237	0.0604601	-0.263122	0.249533	-0.167891	0	0	-0.365097	-0.0126361	-0.0291676	0.0465679	-0.369186	0.911518	0.467128	0.974207	0	0	-0.135821	-0.291827	0.309039	0.527434	1.14665	0	0
0.57	2.76346	1.50275	-1.20607	0.67868	0.157329	1.03359	0.471694	0.0328201	-0.0974357	0.75944	-0.114921	0	0	-0.230599	0.0580265	-0.259788	0.246497	-0.165636	0	0	-0.359897	-0.00855343	-0.0280335	0.0459792	-0.367636	0.906808	0.463244	0.976398	0	0	-0.130946	-0.290992	0.312726	0.524723	1.14682	0	0
0.58	2.71107	1.50785	-1.14953	0.678469	0.166204	1.03215	0.479181	0.0349822	-0.11346	0.713469	-0.115267	0	0	-0.235009	0.0560844	-0.256075	0.2437	-0.163348	0	0	-0.355612	-0.00502458	-0.0272184	0.0452007	-0.365888	0.901338	0.459279	0.978604	0	0	-0.125725	-0.290064	0.316847	0.52136	1.14788	0	0
0.59	2.66289	1.51245	-1.09669	0.678283	0.175209	1.03068	0.48507	0.0365097	-0.128572	0.669421	-0.116424	0	0	-0.24067	0.0544334	-0.251581	0.240031	-0.161318	0	0	-0.351961	-0.00209075	-0.026975	0.043924	-0.364061	0.895218	0.455625	0.981011	0	0	-0.120823	-0.289298	0.320291	0.518282	1.14899	0	0
0.6	2.61751	1.51612	-1.04589	0.678176	0.184273	1.02925	0.48852	0.0379444	-0.141627	0.626591	-0.117151	0	0	-0.247217	0.0522714	-0.24586	0.236875	-0.159391	0	0	-0.349369	0.000676764	-0.0276183	0.042596	-0.361976	0.888636	0.452331	0.983479	0	0	-0.116373	-0.288802	0.322429	0.516037	1.15013	0	0
0.61	2.57425	1.51873	-0.995919	0.67809	0.193322	1.02791	0.488911	0.0396772	-0.151988	0.583798	-0.116773	0	0	-0.254233	0.0490496	-0.238165	0.235053	-0.157755	0	0	-0.348271	0.00371425	-0.0297945	0.0416456	-0.359746	0.881905	0.449679	0.986159	0	0	-0.112494	-0.288678	0.32321	0.514976	1.15193	0	0
0.62	2.5426	1.51998	-0.957233	0.678019	0.202509	1.02661	0.486781	0.0416105	-0.16002	0.544037	-0.116897	0	0	-0.263241	0.045395	-0.22942	0.232346	-0.15614	0	0	-0.348283	0.00690577	-0.0329495	0.0434974	-0.359614	0.890617	0.448157	0.971718	0	0	-0.10898	-0.290688	0.331998	0.515282	1.14489	0	0
0.63	2.50639	1.52171	-0.914603	0.677986	0.211997	1.02518	0.485462	0.0434711	-0.166356	0.510623	-0.115386	0	0	-0.271683	0.0417141	-0.222992	0.230525	-0.15465	0	0	-0.347381	0.00969116	-0.0355833	0.0419969	-0.357622	0.884088	0.445746	0.974527	0	0	-0.106848	-0.290556	0.332263	0.515065	1.14664	0	0
0.64	2.47053	1.52381	-0.872178	0.677923	0.221748	1.02363	0.485283	0.0444598	-0.172701	0.485812	-0.112662	0	0	-0.279624	0.03809	-0.218523	0.230087	-0.153583	0	0	-0.345587	0.0121404	-0.0390958	0.0422347	-0.357217	0.889802	0.443786	0.966547	0	0	-0.105708	-0.290223	0.332094	0.514633	1.14803	0	0
0.65	2.46006	1.52483	-0.85444	0.677813	0.231655	1.0222	0.483308	0.0447915	-0.178058	0.467841	-0.108375	0	0	-0.28955	0.034582	-0.213474	0.228989	-0.153267	0	0	-0.345331	0.0145552	-0.0435376	0.0418628	-0.356676	0.892097	0.442262	0.960607	0	0	-0.104786	-0.290575	0.333855	0.514757	1.14748	0	0
0.66	2.46009	1.52546	-0.846869	0.677691	0.241764	1.02077	0.481444	0.0446786	-0.181426	0.45936	-0.103392	0	0	-0.299758	0.0307995	-0.208998	0.228835	-0.15305	0	0	-0.345274	0.0170597	-0.0484834	0.041005	-0.356313	0.893685	0.441074	0.9562	0	0	-0.104546	-0.29094	0.335098	0.515189	1.14767	0	0
0.67	2.47125	1.5251	-0.850398	0.677552	0.25209	1.0194	0.478531	0.0449315	-0.181351	0.458629	-0.0972833	0	0	-0.31112	0.0267394	-0.204322	0.228463	-0.153095	0	0	-0.346695	0.0199754	-0.0525362	0.0334984	-0.352131	0.859486	0.439413	0.987108	0	0	-0.105112	-0.289728	0.328668	0.516405	1.15542	0	0
0.68	2.48699	1.52408	-0.858475	0.677372	0.26261	1.01798	0.475853	0.0451828	-0.178949	0.467579	-0.0937834	0	0	-0.322037	0.0220787	-0.202102	0.231085	-0.152026	0	0	-0.347546	0.0234872	-0.0574914	0.033674	-0.355659	0.875493	0.441753	0.966827	0	0	-0.105166	-0.293766	0.34554	0.519479	1.13738	0	0
